# xmcd
#
# Track frame offsets:
#	187
#	24645
#	52877
#	86432
#	135582
#	177482
#	225685
#
# Disc length: 3466
#
# Revision: 1
# Processed by: cddbd v1.5.1PL0 Copyright (c) Steve Scherf et al.
# Submitted via: CDex 1.50beta8
# Normalized: r0:TRMNUM
#
DISCID=510d8807
DTITLE=John Coltrane - THE BALLADS
DYEAR=1900
DGENRE=Jazz
TTITLE0=Soultrane
TTITLE1=Violets For Your Furs
TTITLE2=You Leave Me Bleathless
TTITLE3=I Want To Talk About You
TTITLE4=Don't Take Your Love From Me
TTITLE5=Stardust
TTITLE6=My Ideal
EXTD=
EXTT0=
EXTT1=
EXTT2=
EXTT3=
EXTT4=
EXTT5=
EXTT6=
PLAYORDER=
